<?xml version="1.0" encoding="utf-8"?>
<svg xmlns="http://www.w3.org/2000/svg" xmlns:xlink="http://www.w3.org/1999/xlink" width="1000" height="1000" viewBox="0 0 4000 4000">
<defs>
  <clipPath id="clip950">
    <rect x="0" y="0" width="4000" height="4000"/>
  </clipPath>
</defs>
<path clip-path="url(#clip950)" d="M0 4000 L4000 4000 L4000 0 L0 0  Z" fill="#ffffff" fill-rule="evenodd" fill-opacity="1"/>
<defs>
  <clipPath id="clip951">
    <rect x="800" y="400" width="2801" height="2801"/>
  </clipPath>
</defs>
<path clip-path="url(#clip950)" d="M244.881 3758.14 L3952.76 3758.14 L3952.76 47.2441 L244.881 47.2441  Z" fill="#ffffff" fill-rule="evenodd" fill-opacity="1"/>
<defs>
  <clipPath id="clip952">
    <rect x="244" y="47" width="3709" height="3712"/>
  </clipPath>
</defs>
<polyline clip-path="url(#clip952)" style="stroke:#000000; stroke-linecap:round; stroke-linejoin:round; stroke-width:2; stroke-opacity:0.1; fill:none" points="349.821,3758.14 349.821,47.2441 "/>
<polyline clip-path="url(#clip952)" style="stroke:#000000; stroke-linecap:round; stroke-linejoin:round; stroke-width:2; stroke-opacity:0.1; fill:none" points="738.487,3758.14 738.487,47.2441 "/>
<polyline clip-path="url(#clip952)" style="stroke:#000000; stroke-linecap:round; stroke-linejoin:round; stroke-width:2; stroke-opacity:0.1; fill:none" points="1127.15,3758.14 1127.15,47.2441 "/>
<polyline clip-path="url(#clip952)" style="stroke:#000000; stroke-linecap:round; stroke-linejoin:round; stroke-width:2; stroke-opacity:0.1; fill:none" points="1515.82,3758.14 1515.82,47.2441 "/>
<polyline clip-path="url(#clip952)" style="stroke:#000000; stroke-linecap:round; stroke-linejoin:round; stroke-width:2; stroke-opacity:0.1; fill:none" points="1904.49,3758.14 1904.49,47.2441 "/>
<polyline clip-path="url(#clip952)" style="stroke:#000000; stroke-linecap:round; stroke-linejoin:round; stroke-width:2; stroke-opacity:0.1; fill:none" points="2293.15,3758.14 2293.15,47.2441 "/>
<polyline clip-path="url(#clip952)" style="stroke:#000000; stroke-linecap:round; stroke-linejoin:round; stroke-width:2; stroke-opacity:0.1; fill:none" points="2681.82,3758.14 2681.82,47.2441 "/>
<polyline clip-path="url(#clip952)" style="stroke:#000000; stroke-linecap:round; stroke-linejoin:round; stroke-width:2; stroke-opacity:0.1; fill:none" points="3070.48,3758.14 3070.48,47.2441 "/>
<polyline clip-path="url(#clip952)" style="stroke:#000000; stroke-linecap:round; stroke-linejoin:round; stroke-width:2; stroke-opacity:0.1; fill:none" points="3459.15,3758.14 3459.15,47.2441 "/>
<polyline clip-path="url(#clip952)" style="stroke:#000000; stroke-linecap:round; stroke-linejoin:round; stroke-width:2; stroke-opacity:0.1; fill:none" points="3847.82,3758.14 3847.82,47.2441 "/>
<polyline clip-path="url(#clip950)" style="stroke:#000000; stroke-linecap:round; stroke-linejoin:round; stroke-width:4; stroke-opacity:1; fill:none" points="244.881,3758.14 3952.76,3758.14 "/>
<polyline clip-path="url(#clip950)" style="stroke:#000000; stroke-linecap:round; stroke-linejoin:round; stroke-width:4; stroke-opacity:1; fill:none" points="349.821,3758.14 349.821,3739.24 "/>
<polyline clip-path="url(#clip950)" style="stroke:#000000; stroke-linecap:round; stroke-linejoin:round; stroke-width:4; stroke-opacity:1; fill:none" points="738.487,3758.14 738.487,3739.24 "/>
<polyline clip-path="url(#clip950)" style="stroke:#000000; stroke-linecap:round; stroke-linejoin:round; stroke-width:4; stroke-opacity:1; fill:none" points="1127.15,3758.14 1127.15,3739.24 "/>
<polyline clip-path="url(#clip950)" style="stroke:#000000; stroke-linecap:round; stroke-linejoin:round; stroke-width:4; stroke-opacity:1; fill:none" points="1515.82,3758.14 1515.82,3739.24 "/>
<polyline clip-path="url(#clip950)" style="stroke:#000000; stroke-linecap:round; stroke-linejoin:round; stroke-width:4; stroke-opacity:1; fill:none" points="1904.49,3758.14 1904.49,3739.24 "/>
<polyline clip-path="url(#clip950)" style="stroke:#000000; stroke-linecap:round; stroke-linejoin:round; stroke-width:4; stroke-opacity:1; fill:none" points="2293.15,3758.14 2293.15,3739.24 "/>
<polyline clip-path="url(#clip950)" style="stroke:#000000; stroke-linecap:round; stroke-linejoin:round; stroke-width:4; stroke-opacity:1; fill:none" points="2681.82,3758.14 2681.82,3739.24 "/>
<polyline clip-path="url(#clip950)" style="stroke:#000000; stroke-linecap:round; stroke-linejoin:round; stroke-width:4; stroke-opacity:1; fill:none" points="3070.48,3758.14 3070.48,3739.24 "/>
<polyline clip-path="url(#clip950)" style="stroke:#000000; stroke-linecap:round; stroke-linejoin:round; stroke-width:4; stroke-opacity:1; fill:none" points="3459.15,3758.14 3459.15,3739.24 "/>
<polyline clip-path="url(#clip950)" style="stroke:#000000; stroke-linecap:round; stroke-linejoin:round; stroke-width:4; stroke-opacity:1; fill:none" points="3847.82,3758.14 3847.82,3739.24 "/>
<path clip-path="url(#clip950)" d="M327.819 3801.86 Q324.208 3801.86 322.379 3805.42 Q320.573 3808.96 320.573 3816.09 Q320.573 3823.2 322.379 3826.77 Q324.208 3830.31 327.819 3830.31 Q331.453 3830.31 333.258 3826.77 Q335.087 3823.2 335.087 3816.09 Q335.087 3808.96 333.258 3805.42 Q331.453 3801.86 327.819 3801.86 M327.819 3798.15 Q333.629 3798.15 336.684 3802.76 Q339.763 3807.34 339.763 3816.09 Q339.763 3824.82 336.684 3829.43 Q333.629 3834.01 327.819 3834.01 Q322.008 3834.01 318.93 3829.43 Q315.874 3824.82 315.874 3816.09 Q315.874 3807.34 318.93 3802.76 Q322.008 3798.15 327.819 3798.15 Z" fill="#000000" fill-rule="nonzero" fill-opacity="1" /><path clip-path="url(#clip950)" d="M347.981 3827.46 L352.865 3827.46 L352.865 3833.34 L347.981 3833.34 L347.981 3827.46 Z" fill="#000000" fill-rule="nonzero" fill-opacity="1" /><path clip-path="url(#clip950)" d="M363.86 3829.4 L371.499 3829.4 L371.499 3803.04 L363.189 3804.71 L363.189 3800.45 L371.453 3798.78 L376.129 3798.78 L376.129 3829.4 L383.767 3829.4 L383.767 3833.34 L363.86 3833.34 L363.86 3829.4 Z" fill="#000000" fill-rule="nonzero" fill-opacity="1" /><path clip-path="url(#clip950)" d="M716.67 3801.86 Q713.059 3801.86 711.23 3805.42 Q709.425 3808.96 709.425 3816.09 Q709.425 3823.2 711.23 3826.77 Q713.059 3830.31 716.67 3830.31 Q720.304 3830.31 722.11 3826.77 Q723.938 3823.2 723.938 3816.09 Q723.938 3808.96 722.11 3805.42 Q720.304 3801.86 716.67 3801.86 M716.67 3798.15 Q722.48 3798.15 725.536 3802.76 Q728.614 3807.34 728.614 3816.09 Q728.614 3824.82 725.536 3829.43 Q722.48 3834.01 716.67 3834.01 Q710.86 3834.01 707.781 3829.43 Q704.726 3824.82 704.726 3816.09 Q704.726 3807.34 707.781 3802.76 Q710.86 3798.15 716.67 3798.15 Z" fill="#000000" fill-rule="nonzero" fill-opacity="1" /><path clip-path="url(#clip950)" d="M736.832 3827.46 L741.716 3827.46 L741.716 3833.34 L736.832 3833.34 L736.832 3827.46 Z" fill="#000000" fill-rule="nonzero" fill-opacity="1" /><path clip-path="url(#clip950)" d="M755.929 3829.4 L772.248 3829.4 L772.248 3833.34 L750.304 3833.34 L750.304 3829.4 Q752.966 3826.65 757.549 3822.02 Q762.156 3817.37 763.336 3816.03 Q765.582 3813.5 766.461 3811.77 Q767.364 3810.01 767.364 3808.32 Q767.364 3805.56 765.42 3803.83 Q763.498 3802.09 760.397 3802.09 Q758.198 3802.09 755.744 3802.85 Q753.313 3803.62 750.536 3805.17 L750.536 3800.45 Q753.36 3799.31 755.813 3798.73 Q758.267 3798.15 760.304 3798.15 Q765.674 3798.15 768.869 3800.84 Q772.063 3803.53 772.063 3808.02 Q772.063 3810.15 771.253 3812.07 Q770.466 3813.96 768.359 3816.56 Q767.781 3817.23 764.679 3820.45 Q761.577 3823.64 755.929 3829.4 Z" fill="#000000" fill-rule="nonzero" fill-opacity="1" /><path clip-path="url(#clip950)" d="M1104.86 3801.86 Q1101.25 3801.86 1099.42 3805.42 Q1097.62 3808.96 1097.62 3816.09 Q1097.62 3823.2 1099.42 3826.77 Q1101.25 3830.31 1104.86 3830.31 Q1108.5 3830.31 1110.3 3826.77 Q1112.13 3823.2 1112.13 3816.09 Q1112.13 3808.96 1110.3 3805.42 Q1108.5 3801.86 1104.86 3801.86 M1104.86 3798.15 Q1110.67 3798.15 1113.73 3802.76 Q1116.81 3807.34 1116.81 3816.09 Q1116.81 3824.82 1113.73 3829.43 Q1110.67 3834.01 1104.86 3834.01 Q1099.05 3834.01 1095.97 3829.43 Q1092.92 3824.82 1092.92 3816.09 Q1092.92 3807.34 1095.97 3802.76 Q1099.05 3798.15 1104.86 3798.15 Z" fill="#000000" fill-rule="nonzero" fill-opacity="1" /><path clip-path="url(#clip950)" d="M1125.02 3827.46 L1129.91 3827.46 L1129.91 3833.34 L1125.02 3833.34 L1125.02 3827.46 Z" fill="#000000" fill-rule="nonzero" fill-opacity="1" /><path clip-path="url(#clip950)" d="M1154.26 3814.71 Q1157.62 3815.42 1159.49 3817.69 Q1161.39 3819.96 1161.39 3823.29 Q1161.39 3828.41 1157.87 3831.21 Q1154.35 3834.01 1147.87 3834.01 Q1145.69 3834.01 1143.38 3833.57 Q1141.09 3833.15 1138.63 3832.3 L1138.63 3827.78 Q1140.58 3828.92 1142.89 3829.5 Q1145.21 3830.08 1147.73 3830.08 Q1152.13 3830.08 1154.42 3828.34 Q1156.74 3826.6 1156.74 3823.29 Q1156.74 3820.24 1154.58 3818.53 Q1152.45 3816.79 1148.63 3816.79 L1144.61 3816.79 L1144.61 3812.95 L1148.82 3812.95 Q1152.27 3812.95 1154.1 3811.58 Q1155.93 3810.19 1155.93 3807.6 Q1155.93 3804.94 1154.03 3803.53 Q1152.15 3802.09 1148.63 3802.09 Q1146.71 3802.09 1144.51 3802.51 Q1142.32 3802.92 1139.68 3803.8 L1139.68 3799.64 Q1142.34 3798.9 1144.65 3798.53 Q1146.99 3798.15 1149.05 3798.15 Q1154.38 3798.15 1157.48 3800.59 Q1160.58 3802.99 1160.58 3807.11 Q1160.58 3809.98 1158.94 3811.97 Q1157.29 3813.94 1154.26 3814.71 Z" fill="#000000" fill-rule="nonzero" fill-opacity="1" /><path clip-path="url(#clip950)" d="M1492.96 3801.86 Q1489.35 3801.86 1487.52 3805.42 Q1485.72 3808.96 1485.72 3816.09 Q1485.72 3823.2 1487.52 3826.77 Q1489.35 3830.31 1492.96 3830.31 Q1496.59 3830.31 1498.4 3826.77 Q1500.23 3823.2 1500.23 3816.09 Q1500.23 3808.96 1498.4 3805.42 Q1496.59 3801.86 1492.96 3801.86 M1492.96 3798.15 Q1498.77 3798.15 1501.83 3802.76 Q1504.9 3807.34 1504.9 3816.09 Q1504.9 3824.82 1501.83 3829.43 Q1498.77 3834.01 1492.96 3834.01 Q1487.15 3834.01 1484.07 3829.43 Q1481.02 3824.82 1481.02 3816.09 Q1481.02 3807.34 1484.07 3802.76 Q1487.15 3798.15 1492.96 3798.15 Z" fill="#000000" fill-rule="nonzero" fill-opacity="1" /><path clip-path="url(#clip950)" d="M1513.12 3827.46 L1518.01 3827.46 L1518.01 3833.34 L1513.12 3833.34 L1513.12 3827.46 Z" fill="#000000" fill-rule="nonzero" fill-opacity="1" /><path clip-path="url(#clip950)" d="M1541.04 3802.85 L1529.23 3821.3 L1541.04 3821.3 L1541.04 3802.85 M1539.81 3798.78 L1545.69 3798.78 L1545.69 3821.3 L1550.62 3821.3 L1550.62 3825.19 L1545.69 3825.19 L1545.69 3833.34 L1541.04 3833.34 L1541.04 3825.19 L1525.44 3825.19 L1525.44 3820.68 L1539.81 3798.78 Z" fill="#000000" fill-rule="nonzero" fill-opacity="1" /><path clip-path="url(#clip950)" d="M1882.37 3801.86 Q1878.76 3801.86 1876.93 3805.42 Q1875.12 3808.96 1875.12 3816.09 Q1875.12 3823.2 1876.93 3826.77 Q1878.76 3830.31 1882.37 3830.31 Q1886 3830.31 1887.81 3826.77 Q1889.64 3823.2 1889.64 3816.09 Q1889.64 3808.96 1887.81 3805.42 Q1886 3801.86 1882.37 3801.86 M1882.37 3798.15 Q1888.18 3798.15 1891.23 3802.76 Q1894.31 3807.34 1894.31 3816.09 Q1894.31 3824.82 1891.23 3829.43 Q1888.18 3834.01 1882.37 3834.01 Q1876.56 3834.01 1873.48 3829.43 Q1870.42 3824.82 1870.42 3816.09 Q1870.42 3807.34 1873.48 3802.76 Q1876.56 3798.15 1882.37 3798.15 Z" fill="#000000" fill-rule="nonzero" fill-opacity="1" /><path clip-path="url(#clip950)" d="M1902.53 3827.46 L1907.41 3827.46 L1907.41 3833.34 L1902.53 3833.34 L1902.53 3827.46 Z" fill="#000000" fill-rule="nonzero" fill-opacity="1" /><path clip-path="url(#clip950)" d="M1917.65 3798.78 L1936 3798.78 L1936 3802.72 L1921.93 3802.72 L1921.93 3811.19 Q1922.95 3810.84 1923.96 3810.68 Q1924.98 3810.49 1926 3810.49 Q1931.79 3810.49 1935.17 3813.66 Q1938.55 3816.84 1938.55 3822.25 Q1938.55 3827.83 1935.08 3830.93 Q1931.6 3834.01 1925.28 3834.01 Q1923.11 3834.01 1920.84 3833.64 Q1918.59 3833.27 1916.19 3832.53 L1916.19 3827.83 Q1918.27 3828.96 1920.49 3829.52 Q1922.71 3830.08 1925.19 3830.08 Q1929.2 3830.08 1931.53 3827.97 Q1933.87 3825.86 1933.87 3822.25 Q1933.87 3818.64 1931.53 3816.53 Q1929.2 3814.43 1925.19 3814.43 Q1923.32 3814.43 1921.44 3814.84 Q1919.59 3815.26 1917.65 3816.14 L1917.65 3798.78 Z" fill="#000000" fill-rule="nonzero" fill-opacity="1" /><path clip-path="url(#clip950)" d="M2270.45 3801.86 Q2266.84 3801.86 2265.02 3805.42 Q2263.21 3808.96 2263.21 3816.09 Q2263.21 3823.2 2265.02 3826.77 Q2266.84 3830.31 2270.45 3830.31 Q2274.09 3830.31 2275.89 3826.77 Q2277.72 3823.2 2277.72 3816.09 Q2277.72 3808.96 2275.89 3805.42 Q2274.09 3801.86 2270.45 3801.86 M2270.45 3798.15 Q2276.27 3798.15 2279.32 3802.76 Q2282.4 3807.34 2282.4 3816.09 Q2282.4 3824.82 2279.32 3829.43 Q2276.27 3834.01 2270.45 3834.01 Q2264.64 3834.01 2261.57 3829.43 Q2258.51 3824.82 2258.51 3816.09 Q2258.51 3807.34 2261.57 3802.76 Q2264.64 3798.15 2270.45 3798.15 Z" fill="#000000" fill-rule="nonzero" fill-opacity="1" /><path clip-path="url(#clip950)" d="M2290.62 3827.46 L2295.5 3827.46 L2295.5 3833.34 L2290.62 3833.34 L2290.62 3827.46 Z" fill="#000000" fill-rule="nonzero" fill-opacity="1" /><path clip-path="url(#clip950)" d="M2316.26 3814.2 Q2313.12 3814.2 2311.26 3816.35 Q2309.44 3818.5 2309.44 3822.25 Q2309.44 3825.98 2311.26 3828.15 Q2313.12 3830.31 2316.26 3830.31 Q2319.41 3830.31 2321.24 3828.15 Q2323.09 3825.98 2323.09 3822.25 Q2323.09 3818.5 2321.24 3816.35 Q2319.41 3814.2 2316.26 3814.2 M2325.55 3799.54 L2325.55 3803.8 Q2323.79 3802.97 2321.98 3802.53 Q2320.2 3802.09 2318.44 3802.09 Q2313.81 3802.09 2311.36 3805.21 Q2308.93 3808.34 2308.58 3814.66 Q2309.95 3812.65 2312.01 3811.58 Q2314.07 3810.49 2316.54 3810.49 Q2321.75 3810.49 2324.76 3813.66 Q2327.79 3816.81 2327.79 3822.25 Q2327.79 3827.58 2324.64 3830.79 Q2321.5 3834.01 2316.26 3834.01 Q2310.27 3834.01 2307.1 3829.43 Q2303.93 3824.82 2303.93 3816.09 Q2303.93 3807.9 2307.82 3803.04 Q2311.7 3798.15 2318.26 3798.15 Q2320.01 3798.15 2321.8 3798.5 Q2323.6 3798.85 2325.55 3799.54 Z" fill="#000000" fill-rule="nonzero" fill-opacity="1" /><path clip-path="url(#clip950)" d="M2659.65 3801.86 Q2656.04 3801.86 2654.21 3805.42 Q2652.41 3808.96 2652.41 3816.09 Q2652.41 3823.2 2654.21 3826.77 Q2656.04 3830.31 2659.65 3830.31 Q2663.29 3830.31 2665.09 3826.77 Q2666.92 3823.2 2666.92 3816.09 Q2666.92 3808.96 2665.09 3805.42 Q2663.29 3801.86 2659.65 3801.86 M2659.65 3798.15 Q2665.46 3798.15 2668.52 3802.76 Q2671.6 3807.34 2671.6 3816.09 Q2671.6 3824.82 2668.52 3829.43 Q2665.46 3834.01 2659.65 3834.01 Q2653.84 3834.01 2650.76 3829.43 Q2647.71 3824.82 2647.71 3816.09 Q2647.71 3807.34 2650.76 3802.76 Q2653.84 3798.15 2659.65 3798.15 Z" fill="#000000" fill-rule="nonzero" fill-opacity="1" /><path clip-path="url(#clip950)" d="M2679.82 3827.46 L2684.7 3827.46 L2684.7 3833.34 L2679.82 3833.34 L2679.82 3827.46 Z" fill="#000000" fill-rule="nonzero" fill-opacity="1" /><path clip-path="url(#clip950)" d="M2693.7 3798.78 L2715.93 3798.78 L2715.93 3800.77 L2703.38 3833.34 L2698.5 3833.34 L2710.3 3802.72 L2693.7 3802.72 L2693.7 3798.78 Z" fill="#000000" fill-rule="nonzero" fill-opacity="1" /><path clip-path="url(#clip950)" d="M3047.91 3801.86 Q3044.3 3801.86 3042.47 3805.42 Q3040.67 3808.96 3040.67 3816.09 Q3040.67 3823.2 3042.47 3826.77 Q3044.3 3830.31 3047.91 3830.31 Q3051.55 3830.31 3053.35 3826.77 Q3055.18 3823.2 3055.18 3816.09 Q3055.18 3808.96 3053.35 3805.42 Q3051.55 3801.86 3047.91 3801.86 M3047.91 3798.15 Q3053.72 3798.15 3056.78 3802.76 Q3059.86 3807.34 3059.86 3816.09 Q3059.86 3824.82 3056.78 3829.43 Q3053.72 3834.01 3047.91 3834.01 Q3042.1 3834.01 3039.03 3829.43 Q3035.97 3824.82 3035.97 3816.09 Q3035.97 3807.34 3039.03 3802.76 Q3042.1 3798.15 3047.91 3798.15 Z" fill="#000000" fill-rule="nonzero" fill-opacity="1" /><path clip-path="url(#clip950)" d="M3068.08 3827.46 L3072.96 3827.46 L3072.96 3833.34 L3068.08 3833.34 L3068.08 3827.46 Z" fill="#000000" fill-rule="nonzero" fill-opacity="1" /><path clip-path="url(#clip950)" d="M3093.15 3816.93 Q3089.81 3816.93 3087.89 3818.71 Q3085.99 3820.49 3085.99 3823.62 Q3085.99 3826.74 3087.89 3828.53 Q3089.81 3830.31 3093.15 3830.31 Q3096.48 3830.31 3098.4 3828.53 Q3100.32 3826.72 3100.32 3823.62 Q3100.32 3820.49 3098.4 3818.71 Q3096.5 3816.93 3093.15 3816.93 M3088.47 3814.94 Q3085.46 3814.2 3083.77 3812.14 Q3082.1 3810.08 3082.1 3807.11 Q3082.1 3802.97 3085.04 3800.56 Q3088.01 3798.15 3093.15 3798.15 Q3098.31 3798.15 3101.25 3800.56 Q3104.19 3802.97 3104.19 3807.11 Q3104.19 3810.08 3102.5 3812.14 Q3100.83 3814.2 3097.84 3814.94 Q3101.22 3815.72 3103.1 3818.02 Q3105 3820.31 3105 3823.62 Q3105 3828.64 3101.92 3831.33 Q3098.86 3834.01 3093.15 3834.01 Q3087.43 3834.01 3084.35 3831.33 Q3081.29 3828.64 3081.29 3823.62 Q3081.29 3820.31 3083.19 3818.02 Q3085.09 3815.72 3088.47 3814.94 M3086.76 3807.55 Q3086.76 3810.24 3088.42 3811.74 Q3090.11 3813.25 3093.15 3813.25 Q3096.15 3813.25 3097.84 3811.74 Q3099.56 3810.24 3099.56 3807.55 Q3099.56 3804.87 3097.84 3803.36 Q3096.15 3801.86 3093.15 3801.86 Q3090.11 3801.86 3088.42 3803.36 Q3086.76 3804.87 3086.76 3807.55 Z" fill="#000000" fill-rule="nonzero" fill-opacity="1" /><path clip-path="url(#clip950)" d="M3436.63 3801.86 Q3433.02 3801.86 3431.19 3805.42 Q3429.38 3808.96 3429.38 3816.09 Q3429.38 3823.2 3431.19 3826.77 Q3433.02 3830.31 3436.63 3830.31 Q3440.26 3830.31 3442.07 3826.77 Q3443.9 3823.2 3443.9 3816.09 Q3443.9 3808.96 3442.07 3805.42 Q3440.26 3801.86 3436.63 3801.86 M3436.63 3798.15 Q3442.44 3798.15 3445.49 3802.76 Q3448.57 3807.34 3448.57 3816.09 Q3448.57 3824.82 3445.49 3829.43 Q3442.44 3834.01 3436.63 3834.01 Q3430.82 3834.01 3427.74 3829.43 Q3424.68 3824.82 3424.68 3816.09 Q3424.68 3807.34 3427.74 3802.76 Q3430.82 3798.15 3436.63 3798.15 Z" fill="#000000" fill-rule="nonzero" fill-opacity="1" /><path clip-path="url(#clip950)" d="M3456.79 3827.46 L3461.67 3827.46 L3461.67 3833.34 L3456.79 3833.34 L3456.79 3827.46 Z" fill="#000000" fill-rule="nonzero" fill-opacity="1" /><path clip-path="url(#clip950)" d="M3472 3832.62 L3472 3828.36 Q3473.76 3829.2 3475.56 3829.64 Q3477.37 3830.08 3479.1 3830.08 Q3483.73 3830.08 3486.16 3826.97 Q3488.62 3823.85 3488.96 3817.51 Q3487.62 3819.5 3485.56 3820.56 Q3483.5 3821.63 3481 3821.63 Q3475.82 3821.63 3472.78 3818.5 Q3469.77 3815.35 3469.77 3809.91 Q3469.77 3804.59 3472.92 3801.37 Q3476.07 3798.15 3481.3 3798.15 Q3487.3 3798.15 3490.45 3802.76 Q3493.62 3807.34 3493.62 3816.09 Q3493.62 3824.27 3489.73 3829.15 Q3485.86 3834.01 3479.31 3834.01 Q3477.55 3834.01 3475.75 3833.66 Q3473.94 3833.32 3472 3832.62 M3481.3 3817.97 Q3484.45 3817.97 3486.28 3815.82 Q3488.13 3813.66 3488.13 3809.91 Q3488.13 3806.19 3486.28 3804.03 Q3484.45 3801.86 3481.3 3801.86 Q3478.15 3801.86 3476.3 3804.03 Q3474.47 3806.19 3474.47 3809.91 Q3474.47 3813.66 3476.3 3815.82 Q3478.15 3817.97 3481.3 3817.97 Z" fill="#000000" fill-rule="nonzero" fill-opacity="1" /><path clip-path="url(#clip950)" d="M3814.97 3829.4 L3822.61 3829.4 L3822.61 3803.04 L3814.3 3804.71 L3814.3 3800.45 L3822.56 3798.78 L3827.24 3798.78 L3827.24 3829.4 L3834.88 3829.4 L3834.88 3833.34 L3814.97 3833.34 L3814.97 3829.4 Z" fill="#000000" fill-rule="nonzero" fill-opacity="1" /><path clip-path="url(#clip950)" d="M3844.32 3827.46 L3849.2 3827.46 L3849.2 3833.34 L3844.32 3833.34 L3844.32 3827.46 Z" fill="#000000" fill-rule="nonzero" fill-opacity="1" /><path clip-path="url(#clip950)" d="M3869.39 3801.86 Q3865.78 3801.86 3863.95 3805.42 Q3862.14 3808.96 3862.14 3816.09 Q3862.14 3823.2 3863.95 3826.77 Q3865.78 3830.31 3869.39 3830.31 Q3873.02 3830.31 3874.83 3826.77 Q3876.66 3823.2 3876.66 3816.09 Q3876.66 3808.96 3874.83 3805.42 Q3873.02 3801.86 3869.39 3801.86 M3869.39 3798.15 Q3875.2 3798.15 3878.26 3802.76 Q3881.33 3807.34 3881.33 3816.09 Q3881.33 3824.82 3878.26 3829.43 Q3875.2 3834.01 3869.39 3834.01 Q3863.58 3834.01 3860.5 3829.43 Q3857.45 3824.82 3857.45 3816.09 Q3857.45 3807.34 3860.5 3802.76 Q3863.58 3798.15 3869.39 3798.15 Z" fill="#000000" fill-rule="nonzero" fill-opacity="1" /><path clip-path="url(#clip950)" d="M1499.34 3879.48 L1505.77 3879.48 L1505.77 3927 L1499.34 3927 L1499.34 3879.48 Z" fill="#000000" fill-rule="nonzero" fill-opacity="1" /><path clip-path="url(#clip950)" d="M1547.95 3905.49 L1547.95 3927 L1542.09 3927 L1542.09 3905.68 Q1542.09 3900.62 1540.12 3898.1 Q1538.14 3895.59 1534.2 3895.59 Q1529.45 3895.59 1526.72 3898.61 Q1523.98 3901.64 1523.98 3906.86 L1523.98 3927 L1518.09 3927 L1518.09 3891.36 L1523.98 3891.36 L1523.98 3896.89 Q1526.08 3893.68 1528.91 3892.09 Q1531.78 3890.5 1535.5 3890.5 Q1541.64 3890.5 1544.8 3894.32 Q1547.95 3898.1 1547.95 3905.49 Z" fill="#000000" fill-rule="nonzero" fill-opacity="1" /><path clip-path="url(#clip950)" d="M1577.67 3877.48 L1577.67 3882.35 L1572.07 3882.35 Q1568.92 3882.35 1567.68 3883.62 Q1566.47 3884.89 1566.47 3888.2 L1566.47 3891.36 L1576.11 3891.36 L1576.11 3895.91 L1566.47 3895.91 L1566.47 3927 L1560.58 3927 L1560.58 3895.91 L1554.98 3895.91 L1554.98 3891.36 L1560.58 3891.36 L1560.58 3888.87 Q1560.58 3882.92 1563.35 3880.22 Q1566.12 3877.48 1572.14 3877.48 L1577.67 3877.48 Z" fill="#000000" fill-rule="nonzero" fill-opacity="1" /><path clip-path="url(#clip950)" d="M1613.07 3907.72 L1613.07 3910.58 L1586.14 3910.58 Q1586.52 3916.63 1589.77 3919.81 Q1593.05 3922.96 1598.87 3922.96 Q1602.25 3922.96 1605.4 3922.13 Q1608.58 3921.31 1611.7 3919.65 L1611.7 3925.19 Q1608.55 3926.53 1605.24 3927.23 Q1601.93 3927.93 1598.52 3927.93 Q1589.99 3927.93 1584.99 3922.96 Q1580.03 3918 1580.03 3909.53 Q1580.03 3900.78 1584.74 3895.65 Q1589.48 3890.5 1597.5 3890.5 Q1604.7 3890.5 1608.87 3895.14 Q1613.07 3899.76 1613.07 3907.72 M1607.21 3906 Q1607.15 3901.19 1604.51 3898.33 Q1601.9 3895.46 1597.57 3895.46 Q1592.67 3895.46 1589.71 3898.23 Q1586.78 3901 1586.33 3906.03 L1607.21 3906 Z" fill="#000000" fill-rule="nonzero" fill-opacity="1" /><path clip-path="url(#clip950)" d="M1643.34 3896.83 Q1642.35 3896.26 1641.17 3896 Q1640.03 3895.72 1638.63 3895.72 Q1633.66 3895.72 1630.99 3898.96 Q1628.34 3902.18 1628.34 3908.23 L1628.34 3927 L1622.46 3927 L1622.46 3891.36 L1628.34 3891.36 L1628.34 3896.89 Q1630.19 3893.65 1633.15 3892.09 Q1636.11 3890.5 1640.34 3890.5 Q1640.95 3890.5 1641.68 3890.59 Q1642.41 3890.66 1643.3 3890.81 L1643.34 3896.83 Z" fill="#000000" fill-rule="nonzero" fill-opacity="1" /><path clip-path="url(#clip950)" d="M1668.99 3896.83 Q1668 3896.26 1666.83 3896 Q1665.68 3895.72 1664.28 3895.72 Q1659.31 3895.72 1656.64 3898.96 Q1654 3902.18 1654 3908.23 L1654 3927 L1648.11 3927 L1648.11 3891.36 L1654 3891.36 L1654 3896.89 Q1655.84 3893.65 1658.8 3892.09 Q1661.76 3890.5 1666 3890.5 Q1666.6 3890.5 1667.33 3890.59 Q1668.07 3890.66 1668.96 3890.81 L1668.99 3896.83 Z" fill="#000000" fill-rule="nonzero" fill-opacity="1" /><path clip-path="url(#clip950)" d="M1704.19 3907.72 L1704.19 3910.58 L1677.27 3910.58 Q1677.65 3916.63 1680.89 3919.81 Q1684.17 3922.96 1690 3922.96 Q1693.37 3922.96 1696.52 3922.13 Q1699.7 3921.31 1702.82 3919.65 L1702.82 3925.19 Q1699.67 3926.53 1696.36 3927.23 Q1693.05 3927.93 1689.65 3927.93 Q1681.12 3927.93 1676.12 3922.96 Q1671.15 3918 1671.15 3909.53 Q1671.15 3900.78 1675.86 3895.65 Q1680.61 3890.5 1688.63 3890.5 Q1695.82 3890.5 1699.99 3895.14 Q1704.19 3899.76 1704.19 3907.72 M1698.34 3906 Q1698.27 3901.19 1695.63 3898.33 Q1693.02 3895.46 1688.69 3895.46 Q1683.79 3895.46 1680.83 3898.23 Q1677.9 3901 1677.46 3906.03 L1698.34 3906 Z" fill="#000000" fill-rule="nonzero" fill-opacity="1" /><path clip-path="url(#clip950)" d="M1737.26 3896.77 L1737.26 3877.48 L1743.12 3877.48 L1743.12 3927 L1737.26 3927 L1737.26 3921.66 Q1735.42 3924.84 1732.58 3926.4 Q1729.78 3927.93 1725.84 3927.93 Q1719.37 3927.93 1715.3 3922.77 Q1711.26 3917.61 1711.26 3909.21 Q1711.26 3900.81 1715.3 3895.65 Q1719.37 3890.5 1725.84 3890.5 Q1729.78 3890.5 1732.58 3892.06 Q1735.42 3893.58 1737.26 3896.77 M1717.31 3909.21 Q1717.31 3915.67 1719.95 3919.36 Q1722.62 3923.03 1727.27 3923.03 Q1731.92 3923.03 1734.59 3919.36 Q1737.26 3915.67 1737.26 3909.21 Q1737.26 3902.75 1734.59 3899.09 Q1731.92 3895.4 1727.27 3895.4 Q1722.62 3895.4 1719.95 3899.09 Q1717.31 3902.75 1717.31 3909.21 Z" fill="#000000" fill-rule="nonzero" fill-opacity="1" /><path clip-path="url(#clip950)" d="M1781.57 3921.66 L1781.57 3940.56 L1775.68 3940.56 L1775.68 3891.36 L1781.57 3891.36 L1781.57 3896.77 Q1783.41 3893.58 1786.21 3892.06 Q1789.05 3890.5 1792.96 3890.5 Q1799.46 3890.5 1803.5 3895.65 Q1807.57 3900.81 1807.57 3909.21 Q1807.57 3917.61 1803.5 3922.77 Q1799.46 3927.93 1792.96 3927.93 Q1789.05 3927.93 1786.21 3926.4 Q1783.41 3924.84 1781.57 3921.66 M1801.49 3909.21 Q1801.49 3902.75 1798.82 3899.09 Q1796.18 3895.4 1791.53 3895.4 Q1786.88 3895.4 1784.21 3899.09 Q1781.57 3902.75 1781.57 3909.21 Q1781.57 3915.67 1784.21 3919.36 Q1786.88 3923.03 1791.53 3923.03 Q1796.18 3923.03 1798.82 3919.36 Q1801.49 3915.67 1801.49 3909.21 Z" fill="#000000" fill-rule="nonzero" fill-opacity="1" /><path clip-path="url(#clip950)" d="M1837.94 3896.83 Q1836.95 3896.26 1835.77 3896 Q1834.63 3895.72 1833.23 3895.72 Q1828.26 3895.72 1825.59 3898.96 Q1822.94 3902.18 1822.94 3908.23 L1822.94 3927 L1817.06 3927 L1817.06 3891.36 L1822.94 3891.36 L1822.94 3896.89 Q1824.79 3893.65 1827.75 3892.09 Q1830.71 3890.5 1834.94 3890.5 Q1835.55 3890.5 1836.28 3890.59 Q1837.01 3890.66 1837.9 3890.81 L1837.94 3896.83 Z" fill="#000000" fill-rule="nonzero" fill-opacity="1" /><path clip-path="url(#clip950)" d="M1856.46 3895.46 Q1851.75 3895.46 1849.01 3899.15 Q1846.27 3902.81 1846.27 3909.21 Q1846.27 3915.61 1848.98 3919.3 Q1851.72 3922.96 1856.46 3922.96 Q1861.14 3922.96 1863.88 3919.27 Q1866.61 3915.58 1866.61 3909.21 Q1866.61 3902.88 1863.88 3899.19 Q1861.14 3895.46 1856.46 3895.46 M1856.46 3890.5 Q1864.1 3890.5 1868.46 3895.46 Q1872.82 3900.43 1872.82 3909.21 Q1872.82 3917.96 1868.46 3922.96 Q1864.1 3927.93 1856.46 3927.93 Q1848.79 3927.93 1844.43 3922.96 Q1840.1 3917.96 1840.1 3909.21 Q1840.1 3900.43 1844.43 3895.46 Q1848.79 3890.5 1856.46 3890.5 Z" fill="#000000" fill-rule="nonzero" fill-opacity="1" /><path clip-path="url(#clip950)" d="M1908.12 3909.21 Q1908.12 3902.75 1905.44 3899.09 Q1902.8 3895.4 1898.16 3895.4 Q1893.51 3895.4 1890.83 3899.09 Q1888.19 3902.75 1888.19 3909.21 Q1888.19 3915.67 1890.83 3919.36 Q1893.51 3923.03 1898.16 3923.03 Q1902.8 3923.03 1905.44 3919.36 Q1908.12 3915.67 1908.12 3909.21 M1888.19 3896.77 Q1890.04 3893.58 1892.84 3892.06 Q1895.67 3890.5 1899.59 3890.5 Q1906.08 3890.5 1910.12 3895.65 Q1914.2 3900.81 1914.2 3909.21 Q1914.2 3917.61 1910.12 3922.77 Q1906.08 3927.93 1899.59 3927.93 Q1895.67 3927.93 1892.84 3926.4 Q1890.04 3924.84 1888.19 3921.66 L1888.19 3927 L1882.3 3927 L1882.3 3877.48 L1888.19 3877.48 L1888.19 3896.77 Z" fill="#000000" fill-rule="nonzero" fill-opacity="1" /><path clip-path="url(#clip950)" d="M1940.11 3909.08 Q1933.01 3909.08 1930.27 3910.71 Q1927.53 3912.33 1927.53 3916.25 Q1927.53 3919.36 1929.57 3921.21 Q1931.64 3923.03 1935.17 3923.03 Q1940.04 3923.03 1942.97 3919.59 Q1945.93 3916.12 1945.93 3910.39 L1945.93 3909.08 L1940.11 3909.08 M1951.79 3906.67 L1951.79 3927 L1945.93 3927 L1945.93 3921.59 Q1943.92 3924.84 1940.93 3926.4 Q1937.94 3927.93 1933.61 3927.93 Q1928.14 3927.93 1924.89 3924.87 Q1921.68 3921.78 1921.68 3916.63 Q1921.68 3910.61 1925.69 3907.56 Q1929.73 3904.5 1937.72 3904.5 L1945.93 3904.5 L1945.93 3903.93 Q1945.93 3899.89 1943.26 3897.69 Q1940.61 3895.46 1935.81 3895.46 Q1932.75 3895.46 1929.86 3896.19 Q1926.96 3896.93 1924.29 3898.39 L1924.29 3892.98 Q1927.5 3891.74 1930.53 3891.13 Q1933.55 3890.5 1936.41 3890.5 Q1944.15 3890.5 1947.97 3894.51 Q1951.79 3898.52 1951.79 3906.67 Z" fill="#000000" fill-rule="nonzero" fill-opacity="1" /><path clip-path="url(#clip950)" d="M1989.44 3909.21 Q1989.44 3902.75 1986.77 3899.09 Q1984.12 3895.4 1979.48 3895.4 Q1974.83 3895.4 1972.16 3899.09 Q1969.52 3902.75 1969.52 3909.21 Q1969.52 3915.67 1972.16 3919.36 Q1974.83 3923.03 1979.48 3923.03 Q1984.12 3923.03 1986.77 3919.36 Q1989.44 3915.67 1989.44 3909.21 M1969.52 3896.77 Q1971.36 3893.58 1974.16 3892.06 Q1976.99 3890.5 1980.91 3890.5 Q1987.4 3890.5 1991.44 3895.65 Q1995.52 3900.81 1995.52 3909.21 Q1995.52 3917.61 1991.44 3922.77 Q1987.4 3927.93 1980.91 3927.93 Q1976.99 3927.93 1974.16 3926.4 Q1971.36 3924.84 1969.52 3921.66 L1969.52 3927 L1963.63 3927 L1963.63 3877.48 L1969.52 3877.48 L1969.52 3896.77 Z" fill="#000000" fill-rule="nonzero" fill-opacity="1" /><path clip-path="url(#clip950)" d="M2005.23 3891.36 L2011.08 3891.36 L2011.08 3927 L2005.23 3927 L2005.23 3891.36 M2005.23 3877.48 L2011.08 3877.48 L2011.08 3884.89 L2005.23 3884.89 L2005.23 3877.48 Z" fill="#000000" fill-rule="nonzero" fill-opacity="1" /><path clip-path="url(#clip950)" d="M2023.34 3877.48 L2029.19 3877.48 L2029.19 3927 L2023.34 3927 L2023.34 3877.48 Z" fill="#000000" fill-rule="nonzero" fill-opacity="1" /><path clip-path="url(#clip950)" d="M2041.45 3891.36 L2047.3 3891.36 L2047.3 3927 L2041.45 3927 L2041.45 3891.36 M2041.45 3877.48 L2047.3 3877.48 L2047.3 3884.89 L2041.45 3884.89 L2041.45 3877.48 Z" fill="#000000" fill-rule="nonzero" fill-opacity="1" /><path clip-path="url(#clip950)" d="M2065.35 3881.23 L2065.35 3891.36 L2077.41 3891.36 L2077.41 3895.91 L2065.35 3895.91 L2065.35 3915.26 Q2065.35 3919.62 2066.53 3920.86 Q2067.74 3922.1 2071.4 3922.1 L2077.41 3922.1 L2077.41 3927 L2071.4 3927 Q2064.62 3927 2062.04 3924.49 Q2059.46 3921.94 2059.46 3915.26 L2059.46 3895.91 L2055.17 3895.91 L2055.17 3891.36 L2059.46 3891.36 L2059.46 3881.23 L2065.35 3881.23 Z" fill="#000000" fill-rule="nonzero" fill-opacity="1" /><path clip-path="url(#clip950)" d="M2099.95 3930.31 Q2097.47 3936.68 2095.11 3938.62 Q2092.76 3940.56 2088.81 3940.56 L2084.13 3940.56 L2084.13 3935.66 L2087.57 3935.66 Q2089.99 3935.66 2091.32 3934.52 Q2092.66 3933.37 2094.28 3929.1 L2095.33 3926.43 L2080.91 3891.36 L2087.12 3891.36 L2098.26 3919.24 L2109.4 3891.36 L2115.61 3891.36 L2099.95 3930.31 Z" fill="#000000" fill-rule="nonzero" fill-opacity="1" /><path clip-path="url(#clip950)" d="M2158.23 3895.46 Q2153.52 3895.46 2150.78 3899.15 Q2148.04 3902.81 2148.04 3909.21 Q2148.04 3915.61 2150.75 3919.3 Q2153.48 3922.96 2158.23 3922.96 Q2162.91 3922.96 2165.64 3919.27 Q2168.38 3915.58 2168.38 3909.21 Q2168.38 3902.88 2165.64 3899.19 Q2162.91 3895.46 2158.23 3895.46 M2158.23 3890.5 Q2165.87 3890.5 2170.23 3895.46 Q2174.59 3900.43 2174.59 3909.21 Q2174.59 3917.96 2170.23 3922.96 Q2165.87 3927.93 2158.23 3927.93 Q2150.56 3927.93 2146.2 3922.96 Q2141.87 3917.96 2141.87 3909.21 Q2141.87 3900.43 2146.2 3895.46 Q2150.56 3890.5 2158.23 3890.5 Z" fill="#000000" fill-rule="nonzero" fill-opacity="1" /><path clip-path="url(#clip950)" d="M2202.34 3877.48 L2202.34 3882.35 L2196.74 3882.35 Q2193.59 3882.35 2192.35 3883.62 Q2191.14 3884.89 2191.14 3888.2 L2191.14 3891.36 L2200.78 3891.36 L2200.78 3895.91 L2191.14 3895.91 L2191.14 3927 L2185.25 3927 L2185.25 3895.91 L2179.65 3895.91 L2179.65 3891.36 L2185.25 3891.36 L2185.25 3888.87 Q2185.25 3882.92 2188.02 3880.22 Q2190.79 3877.48 2196.8 3877.48 L2202.34 3877.48 Z" fill="#000000" fill-rule="nonzero" fill-opacity="1" /><path clip-path="url(#clip950)" d="M2233.76 3881.23 L2233.76 3891.36 L2245.82 3891.36 L2245.82 3895.91 L2233.76 3895.91 L2233.76 3915.26 Q2233.76 3919.62 2234.93 3920.86 Q2236.14 3922.1 2239.8 3922.1 L2245.82 3922.1 L2245.82 3927 L2239.8 3927 Q2233.02 3927 2230.45 3924.49 Q2227.87 3921.94 2227.87 3915.26 L2227.87 3895.91 L2223.57 3895.91 L2223.57 3891.36 L2227.87 3891.36 L2227.87 3881.23 L2233.76 3881.23 Z" fill="#000000" fill-rule="nonzero" fill-opacity="1" /><path clip-path="url(#clip950)" d="M2283.15 3905.49 L2283.15 3927 L2277.3 3927 L2277.3 3905.68 Q2277.3 3900.62 2275.32 3898.1 Q2273.35 3895.59 2269.4 3895.59 Q2264.66 3895.59 2261.92 3898.61 Q2259.19 3901.64 2259.19 3906.86 L2259.19 3927 L2253.3 3927 L2253.3 3877.48 L2259.19 3877.48 L2259.19 3896.89 Q2261.29 3893.68 2264.12 3892.09 Q2266.98 3890.5 2270.71 3890.5 Q2276.85 3890.5 2280 3894.32 Q2283.15 3898.1 2283.15 3905.49 Z" fill="#000000" fill-rule="nonzero" fill-opacity="1" /><path clip-path="url(#clip950)" d="M2325.33 3907.72 L2325.33 3910.58 L2298.4 3910.58 Q2298.78 3916.63 2302.03 3919.81 Q2305.31 3922.96 2311.13 3922.96 Q2314.5 3922.96 2317.66 3922.13 Q2320.84 3921.31 2323.96 3919.65 L2323.96 3925.19 Q2320.81 3926.53 2317.5 3927.23 Q2314.19 3927.93 2310.78 3927.93 Q2302.25 3927.93 2297.25 3922.96 Q2292.29 3918 2292.29 3909.53 Q2292.29 3900.78 2297 3895.65 Q2301.74 3890.5 2309.76 3890.5 Q2316.96 3890.5 2321.12 3895.14 Q2325.33 3899.76 2325.33 3907.72 M2319.47 3906 Q2319.41 3901.19 2316.76 3898.33 Q2314.15 3895.46 2309.83 3895.46 Q2304.92 3895.46 2301.96 3898.23 Q2299.04 3901 2298.59 3906.03 L2319.47 3906 Z" fill="#000000" fill-rule="nonzero" fill-opacity="1" /><path clip-path="url(#clip950)" d="M2349.32 3879.48 L2389.52 3879.48 L2389.52 3884.89 L2372.66 3884.89 L2372.66 3927 L2366.19 3927 L2366.19 3884.89 L2349.32 3884.89 L2349.32 3879.48 Z" fill="#000000" fill-rule="nonzero" fill-opacity="1" /><path clip-path="url(#clip950)" d="M2406.55 3896.83 Q2405.57 3896.26 2404.39 3896 Q2403.24 3895.72 2401.84 3895.72 Q2396.88 3895.72 2394.2 3898.96 Q2391.56 3902.18 2391.56 3908.23 L2391.56 3927 L2385.67 3927 L2385.67 3891.36 L2391.56 3891.36 L2391.56 3896.89 Q2393.41 3893.65 2396.37 3892.09 Q2399.33 3890.5 2403.56 3890.5 Q2404.17 3890.5 2404.9 3890.59 Q2405.63 3890.66 2406.52 3890.81 L2406.55 3896.83 Z" fill="#000000" fill-rule="nonzero" fill-opacity="1" /><path clip-path="url(#clip950)" d="M2412.09 3912.94 L2412.09 3891.36 L2417.95 3891.36 L2417.95 3912.71 Q2417.95 3917.77 2419.92 3920.32 Q2421.89 3922.83 2425.84 3922.83 Q2430.58 3922.83 2433.32 3919.81 Q2436.09 3916.79 2436.09 3911.57 L2436.09 3891.36 L2441.95 3891.36 L2441.95 3927 L2436.09 3927 L2436.09 3921.53 Q2433.96 3924.78 2431.12 3926.37 Q2428.32 3927.93 2424.6 3927.93 Q2418.46 3927.93 2415.27 3924.11 Q2412.09 3920.29 2412.09 3912.94 M2426.83 3890.5 L2426.83 3890.5 Z" fill="#000000" fill-rule="nonzero" fill-opacity="1" /><path clip-path="url(#clip950)" d="M2484.5 3907.72 L2484.5 3910.58 L2457.57 3910.58 Q2457.96 3916.63 2461.2 3919.81 Q2464.48 3922.96 2470.31 3922.96 Q2473.68 3922.96 2476.83 3922.13 Q2480.01 3921.31 2483.13 3919.65 L2483.13 3925.19 Q2479.98 3926.53 2476.67 3927.23 Q2473.36 3927.93 2469.96 3927.93 Q2461.43 3927.93 2456.43 3922.96 Q2451.46 3918 2451.46 3909.53 Q2451.46 3900.78 2456.17 3895.65 Q2460.92 3890.5 2468.94 3890.5 Q2476.13 3890.5 2480.3 3895.14 Q2484.5 3899.76 2484.5 3907.72 M2478.64 3906 Q2478.58 3901.19 2475.94 3898.33 Q2473.33 3895.46 2469 3895.46 Q2464.1 3895.46 2461.14 3898.23 Q2458.21 3901 2457.76 3906.03 L2478.64 3906 Z" fill="#000000" fill-rule="nonzero" fill-opacity="1" /><path clip-path="url(#clip950)" d="M2515.09 3879.48 L2524.67 3879.48 L2536.79 3911.82 L2548.99 3879.48 L2558.57 3879.48 L2558.57 3927 L2552.3 3927 L2552.3 3885.28 L2540.04 3917.87 L2533.58 3917.87 L2521.33 3885.28 L2521.33 3927 L2515.09 3927 L2515.09 3879.48 Z" fill="#000000" fill-rule="nonzero" fill-opacity="1" /><path clip-path="url(#clip950)" d="M2584.89 3895.46 Q2580.18 3895.46 2577.44 3899.15 Q2574.7 3902.81 2574.7 3909.21 Q2574.7 3915.61 2577.41 3919.3 Q2580.15 3922.96 2584.89 3922.96 Q2589.57 3922.96 2592.3 3919.27 Q2595.04 3915.58 2595.04 3909.21 Q2595.04 3902.88 2592.3 3899.19 Q2589.57 3895.46 2584.89 3895.46 M2584.89 3890.5 Q2592.53 3890.5 2596.89 3895.46 Q2601.25 3900.43 2601.25 3909.21 Q2601.25 3917.96 2596.89 3922.96 Q2592.53 3927.93 2584.89 3927.93 Q2577.22 3927.93 2572.86 3922.96 Q2568.53 3917.96 2568.53 3909.21 Q2568.53 3900.43 2572.86 3895.46 Q2577.22 3890.5 2584.89 3890.5 Z" fill="#000000" fill-rule="nonzero" fill-opacity="1" /><path clip-path="url(#clip950)" d="M2634.41 3896.77 L2634.41 3877.48 L2640.27 3877.48 L2640.27 3927 L2634.41 3927 L2634.41 3921.66 Q2632.57 3924.84 2629.73 3926.4 Q2626.93 3927.93 2622.99 3927.93 Q2616.53 3927.93 2612.45 3922.77 Q2608.41 3917.61 2608.41 3909.21 Q2608.41 3900.81 2612.45 3895.65 Q2616.53 3890.5 2622.99 3890.5 Q2626.93 3890.5 2629.73 3892.06 Q2632.57 3893.58 2634.41 3896.77 M2614.46 3909.21 Q2614.46 3915.67 2617.1 3919.36 Q2619.77 3923.03 2624.42 3923.03 Q2629.07 3923.03 2631.74 3919.36 Q2634.41 3915.67 2634.41 3909.21 Q2634.41 3902.75 2631.74 3899.09 Q2629.07 3895.4 2624.42 3895.4 Q2619.77 3895.4 2617.1 3899.09 Q2614.46 3902.75 2614.46 3909.21 Z" fill="#000000" fill-rule="nonzero" fill-opacity="1" /><path clip-path="url(#clip950)" d="M2682.82 3907.72 L2682.82 3910.58 L2655.9 3910.58 Q2656.28 3916.63 2659.53 3919.81 Q2662.8 3922.96 2668.63 3922.96 Q2672 3922.96 2675.15 3922.13 Q2678.34 3921.31 2681.46 3919.65 L2681.46 3925.19 Q2678.3 3926.53 2674.99 3927.23 Q2671.68 3927.93 2668.28 3927.93 Q2659.75 3927.93 2654.75 3922.96 Q2649.79 3918 2649.79 3909.53 Q2649.79 3900.78 2654.5 3895.65 Q2659.24 3890.5 2667.26 3890.5 Q2674.45 3890.5 2678.62 3895.14 Q2682.82 3899.76 2682.82 3907.72 M2676.97 3906 Q2676.9 3901.19 2674.26 3898.33 Q2671.65 3895.46 2667.32 3895.46 Q2662.42 3895.46 2659.46 3898.23 Q2656.53 3901 2656.09 3906.03 L2676.97 3906 Z" fill="#000000" fill-rule="nonzero" fill-opacity="1" /><path clip-path="url(#clip950)" d="M2692.44 3877.48 L2698.29 3877.48 L2698.29 3927 L2692.44 3927 L2692.44 3877.48 Z" fill="#000000" fill-rule="nonzero" fill-opacity="1" /><polyline clip-path="url(#clip952)" style="stroke:#000000; stroke-linecap:round; stroke-linejoin:round; stroke-width:2; stroke-opacity:0.1; fill:none" points="244.881,3653.11 3952.76,3653.11 "/>
<polyline clip-path="url(#clip952)" style="stroke:#000000; stroke-linecap:round; stroke-linejoin:round; stroke-width:2; stroke-opacity:0.1; fill:none" points="244.881,3272.59 3952.76,3272.59 "/>
<polyline clip-path="url(#clip952)" style="stroke:#000000; stroke-linecap:round; stroke-linejoin:round; stroke-width:2; stroke-opacity:0.1; fill:none" points="244.881,2892.06 3952.76,2892.06 "/>
<polyline clip-path="url(#clip952)" style="stroke:#000000; stroke-linecap:round; stroke-linejoin:round; stroke-width:2; stroke-opacity:0.1; fill:none" points="244.881,2511.53 3952.76,2511.53 "/>
<polyline clip-path="url(#clip952)" style="stroke:#000000; stroke-linecap:round; stroke-linejoin:round; stroke-width:2; stroke-opacity:0.1; fill:none" points="244.881,2131.01 3952.76,2131.01 "/>
<polyline clip-path="url(#clip952)" style="stroke:#000000; stroke-linecap:round; stroke-linejoin:round; stroke-width:2; stroke-opacity:0.1; fill:none" points="244.881,1750.48 3952.76,1750.48 "/>
<polyline clip-path="url(#clip952)" style="stroke:#000000; stroke-linecap:round; stroke-linejoin:round; stroke-width:2; stroke-opacity:0.1; fill:none" points="244.881,1369.95 3952.76,1369.95 "/>
<polyline clip-path="url(#clip952)" style="stroke:#000000; stroke-linecap:round; stroke-linejoin:round; stroke-width:2; stroke-opacity:0.1; fill:none" points="244.881,989.428 3952.76,989.428 "/>
<polyline clip-path="url(#clip952)" style="stroke:#000000; stroke-linecap:round; stroke-linejoin:round; stroke-width:2; stroke-opacity:0.1; fill:none" points="244.881,608.901 3952.76,608.901 "/>
<polyline clip-path="url(#clip952)" style="stroke:#000000; stroke-linecap:round; stroke-linejoin:round; stroke-width:2; stroke-opacity:0.1; fill:none" points="244.881,228.375 3952.76,228.375 "/>
<polyline clip-path="url(#clip950)" style="stroke:#000000; stroke-linecap:round; stroke-linejoin:round; stroke-width:4; stroke-opacity:1; fill:none" points="244.881,3758.14 244.881,47.2441 "/>
<polyline clip-path="url(#clip950)" style="stroke:#000000; stroke-linecap:round; stroke-linejoin:round; stroke-width:4; stroke-opacity:1; fill:none" points="244.881,3653.11 263.779,3653.11 "/>
<polyline clip-path="url(#clip950)" style="stroke:#000000; stroke-linecap:round; stroke-linejoin:round; stroke-width:4; stroke-opacity:1; fill:none" points="244.881,3272.59 263.779,3272.59 "/>
<polyline clip-path="url(#clip950)" style="stroke:#000000; stroke-linecap:round; stroke-linejoin:round; stroke-width:4; stroke-opacity:1; fill:none" points="244.881,2892.06 263.779,2892.06 "/>
<polyline clip-path="url(#clip950)" style="stroke:#000000; stroke-linecap:round; stroke-linejoin:round; stroke-width:4; stroke-opacity:1; fill:none" points="244.881,2511.53 263.779,2511.53 "/>
<polyline clip-path="url(#clip950)" style="stroke:#000000; stroke-linecap:round; stroke-linejoin:round; stroke-width:4; stroke-opacity:1; fill:none" points="244.881,2131.01 263.779,2131.01 "/>
<polyline clip-path="url(#clip950)" style="stroke:#000000; stroke-linecap:round; stroke-linejoin:round; stroke-width:4; stroke-opacity:1; fill:none" points="244.881,1750.48 263.779,1750.48 "/>
<polyline clip-path="url(#clip950)" style="stroke:#000000; stroke-linecap:round; stroke-linejoin:round; stroke-width:4; stroke-opacity:1; fill:none" points="244.881,1369.95 263.779,1369.95 "/>
<polyline clip-path="url(#clip950)" style="stroke:#000000; stroke-linecap:round; stroke-linejoin:round; stroke-width:4; stroke-opacity:1; fill:none" points="244.881,989.428 263.779,989.428 "/>
<polyline clip-path="url(#clip950)" style="stroke:#000000; stroke-linecap:round; stroke-linejoin:round; stroke-width:4; stroke-opacity:1; fill:none" points="244.881,608.901 263.779,608.901 "/>
<polyline clip-path="url(#clip950)" style="stroke:#000000; stroke-linecap:round; stroke-linejoin:round; stroke-width:4; stroke-opacity:1; fill:none" points="244.881,228.375 263.779,228.375 "/>
<path clip-path="url(#clip950)" d="M172.937 3638.91 Q169.326 3638.91 167.497 3642.48 Q165.691 3646.02 165.691 3653.15 Q165.691 3660.26 167.497 3663.82 Q169.326 3667.36 172.937 3667.36 Q176.571 3667.36 178.376 3663.82 Q180.205 3660.26 180.205 3653.15 Q180.205 3646.02 178.376 3642.48 Q176.571 3638.91 172.937 3638.91 M172.937 3635.21 Q178.747 3635.21 181.802 3639.82 Q184.881 3644.4 184.881 3653.15 Q184.881 3661.88 181.802 3666.48 Q178.747 3671.07 172.937 3671.07 Q167.126 3671.07 164.048 3666.48 Q160.992 3661.88 160.992 3653.15 Q160.992 3644.4 164.048 3639.82 Q167.126 3635.21 172.937 3635.21 Z" fill="#000000" fill-rule="nonzero" fill-opacity="1" /><path clip-path="url(#clip950)" d="M163.978 3255.31 L182.335 3255.31 L182.335 3259.24 L168.261 3259.24 L168.261 3267.72 Q169.279 3267.37 170.298 3267.21 Q171.316 3267.02 172.335 3267.02 Q178.122 3267.02 181.501 3270.19 Q184.881 3273.36 184.881 3278.78 Q184.881 3284.36 181.409 3287.46 Q177.937 3290.54 171.617 3290.54 Q169.441 3290.54 167.173 3290.17 Q164.927 3289.8 162.52 3289.06 L162.52 3284.36 Q164.603 3285.49 166.826 3286.05 Q169.048 3286.6 171.525 3286.6 Q175.529 3286.6 177.867 3284.5 Q180.205 3282.39 180.205 3278.78 Q180.205 3275.17 177.867 3273.06 Q175.529 3270.96 171.525 3270.96 Q169.65 3270.96 167.775 3271.37 Q165.923 3271.79 163.978 3272.67 L163.978 3255.31 Z" fill="#000000" fill-rule="nonzero" fill-opacity="1" /><path clip-path="url(#clip950)" d="M133.585 2905.41 L141.224 2905.41 L141.224 2879.04 L132.914 2880.71 L132.914 2876.45 L141.178 2874.78 L145.853 2874.78 L145.853 2905.41 L153.492 2905.41 L153.492 2909.34 L133.585 2909.34 L133.585 2905.41 Z" fill="#000000" fill-rule="nonzero" fill-opacity="1" /><path clip-path="url(#clip950)" d="M172.937 2877.86 Q169.326 2877.86 167.497 2881.42 Q165.691 2884.97 165.691 2892.1 Q165.691 2899.2 167.497 2902.77 Q169.326 2906.31 172.937 2906.31 Q176.571 2906.31 178.376 2902.77 Q180.205 2899.2 180.205 2892.1 Q180.205 2884.97 178.376 2881.42 Q176.571 2877.86 172.937 2877.86 M172.937 2874.16 Q178.747 2874.16 181.802 2878.76 Q184.881 2883.35 184.881 2892.1 Q184.881 2900.82 181.802 2905.43 Q178.747 2910.01 172.937 2910.01 Q167.126 2910.01 164.048 2905.43 Q160.992 2900.82 160.992 2892.1 Q160.992 2883.35 164.048 2878.76 Q167.126 2874.16 172.937 2874.16 Z" fill="#000000" fill-rule="nonzero" fill-opacity="1" /><path clip-path="url(#clip950)" d="M134.58 2524.88 L142.219 2524.88 L142.219 2498.51 L133.909 2500.18 L133.909 2495.92 L142.173 2494.25 L146.849 2494.25 L146.849 2524.88 L154.488 2524.88 L154.488 2528.81 L134.58 2528.81 L134.58 2524.88 Z" fill="#000000" fill-rule="nonzero" fill-opacity="1" /><path clip-path="url(#clip950)" d="M163.978 2494.25 L182.335 2494.25 L182.335 2498.19 L168.261 2498.19 L168.261 2506.66 Q169.279 2506.31 170.298 2506.15 Q171.316 2505.97 172.335 2505.97 Q178.122 2505.97 181.501 2509.14 Q184.881 2512.31 184.881 2517.73 Q184.881 2523.31 181.409 2526.41 Q177.937 2529.49 171.617 2529.49 Q169.441 2529.49 167.173 2529.12 Q164.927 2528.75 162.52 2528 L162.52 2523.31 Q164.603 2524.44 166.826 2525 Q169.048 2525.55 171.525 2525.55 Q175.529 2525.55 177.867 2523.44 Q180.205 2521.34 180.205 2517.73 Q180.205 2514.12 177.867 2512.01 Q175.529 2509.9 171.525 2509.9 Q169.65 2509.9 167.775 2510.32 Q165.923 2510.74 163.978 2511.62 L163.978 2494.25 Z" fill="#000000" fill-rule="nonzero" fill-opacity="1" /><path clip-path="url(#clip950)" d="M136.803 2144.35 L153.122 2144.35 L153.122 2148.29 L131.178 2148.29 L131.178 2144.35 Q133.84 2141.6 138.423 2136.97 Q143.029 2132.32 144.21 2130.97 Q146.455 2128.45 147.335 2126.71 Q148.238 2124.95 148.238 2123.26 Q148.238 2120.51 146.293 2118.77 Q144.372 2117.04 141.27 2117.04 Q139.071 2117.04 136.617 2117.8 Q134.187 2118.57 131.409 2120.12 L131.409 2115.39 Q134.233 2114.26 136.687 2113.68 Q139.14 2113.1 141.178 2113.1 Q146.548 2113.1 149.742 2115.79 Q152.937 2118.47 152.937 2122.96 Q152.937 2125.09 152.127 2127.01 Q151.339 2128.91 149.233 2131.51 Q148.654 2132.18 145.552 2135.39 Q142.451 2138.59 136.803 2144.35 Z" fill="#000000" fill-rule="nonzero" fill-opacity="1" /><path clip-path="url(#clip950)" d="M172.937 2116.81 Q169.326 2116.81 167.497 2120.37 Q165.691 2123.91 165.691 2131.04 Q165.691 2138.15 167.497 2141.71 Q169.326 2145.26 172.937 2145.26 Q176.571 2145.26 178.376 2141.71 Q180.205 2138.15 180.205 2131.04 Q180.205 2123.91 178.376 2120.37 Q176.571 2116.81 172.937 2116.81 M172.937 2113.1 Q178.747 2113.1 181.802 2117.71 Q184.881 2122.29 184.881 2131.04 Q184.881 2139.77 181.802 2144.38 Q178.747 2148.96 172.937 2148.96 Q167.126 2148.96 164.048 2144.38 Q160.992 2139.77 160.992 2131.04 Q160.992 2122.29 164.048 2117.71 Q167.126 2113.1 172.937 2113.1 Z" fill="#000000" fill-rule="nonzero" fill-opacity="1" /><path clip-path="url(#clip950)" d="M137.798 1763.83 L154.117 1763.83 L154.117 1767.76 L132.173 1767.76 L132.173 1763.83 Q134.835 1761.07 139.418 1756.44 Q144.025 1751.79 145.205 1750.45 Q147.451 1747.92 148.33 1746.19 Q149.233 1744.43 149.233 1742.74 Q149.233 1739.98 147.289 1738.25 Q145.367 1736.51 142.265 1736.51 Q140.066 1736.51 137.613 1737.28 Q135.182 1738.04 132.404 1739.59 L132.404 1734.87 Q135.228 1733.73 137.682 1733.16 Q140.136 1732.58 142.173 1732.58 Q147.543 1732.58 150.738 1735.26 Q153.932 1737.95 153.932 1742.44 Q153.932 1744.57 153.122 1746.49 Q152.335 1748.39 150.228 1750.98 Q149.65 1751.65 146.548 1754.87 Q143.446 1758.06 137.798 1763.83 Z" fill="#000000" fill-rule="nonzero" fill-opacity="1" /><path clip-path="url(#clip950)" d="M163.978 1733.2 L182.335 1733.2 L182.335 1737.14 L168.261 1737.14 L168.261 1745.61 Q169.279 1745.26 170.298 1745.1 Q171.316 1744.91 172.335 1744.91 Q178.122 1744.91 181.501 1748.09 Q184.881 1751.26 184.881 1756.67 Q184.881 1762.25 181.409 1765.35 Q177.937 1768.43 171.617 1768.43 Q169.441 1768.43 167.173 1768.06 Q164.927 1767.69 162.52 1766.95 L162.52 1762.25 Q164.603 1763.39 166.826 1763.94 Q169.048 1764.5 171.525 1764.5 Q175.529 1764.5 177.867 1762.39 Q180.205 1760.28 180.205 1756.67 Q180.205 1753.06 177.867 1750.96 Q175.529 1748.85 171.525 1748.85 Q169.65 1748.85 167.775 1749.27 Q165.923 1749.68 163.978 1750.56 L163.978 1733.2 Z" fill="#000000" fill-rule="nonzero" fill-opacity="1" /><path clip-path="url(#clip950)" d="M146.941 1368.6 Q150.298 1369.32 152.173 1371.59 Q154.071 1373.86 154.071 1377.19 Q154.071 1382.3 150.552 1385.11 Q147.034 1387.91 140.553 1387.91 Q138.377 1387.91 136.062 1387.47 Q133.77 1387.05 131.316 1386.19 L131.316 1381.68 Q133.261 1382.81 135.576 1383.39 Q137.89 1383.97 140.414 1383.97 Q144.812 1383.97 147.103 1382.23 Q149.418 1380.5 149.418 1377.19 Q149.418 1374.13 147.265 1372.42 Q145.136 1370.68 141.316 1370.68 L137.289 1370.68 L137.289 1366.84 L141.502 1366.84 Q144.951 1366.84 146.779 1365.48 Q148.608 1364.09 148.608 1361.49 Q148.608 1358.83 146.71 1357.42 Q144.835 1355.98 141.316 1355.98 Q139.395 1355.98 137.196 1356.4 Q134.997 1356.82 132.358 1357.7 L132.358 1353.53 Q135.02 1352.79 137.335 1352.42 Q139.673 1352.05 141.733 1352.05 Q147.057 1352.05 150.159 1354.48 Q153.261 1356.89 153.261 1361.01 Q153.261 1363.88 151.617 1365.87 Q149.974 1367.84 146.941 1368.6 Z" fill="#000000" fill-rule="nonzero" fill-opacity="1" /><path clip-path="url(#clip950)" d="M172.937 1355.75 Q169.326 1355.75 167.497 1359.32 Q165.691 1362.86 165.691 1369.99 Q165.691 1377.1 167.497 1380.66 Q169.326 1384.2 172.937 1384.2 Q176.571 1384.2 178.376 1380.66 Q180.205 1377.1 180.205 1369.99 Q180.205 1362.86 178.376 1359.32 Q176.571 1355.75 172.937 1355.75 M172.937 1352.05 Q178.747 1352.05 181.802 1356.66 Q184.881 1361.24 184.881 1369.99 Q184.881 1378.72 181.802 1383.32 Q178.747 1387.91 172.937 1387.91 Q167.126 1387.91 164.048 1383.32 Q160.992 1378.72 160.992 1369.99 Q160.992 1361.24 164.048 1356.66 Q167.126 1352.05 172.937 1352.05 Z" fill="#000000" fill-rule="nonzero" fill-opacity="1" /><path clip-path="url(#clip950)" d="M147.937 988.074 Q151.293 988.791 153.168 991.06 Q155.066 993.328 155.066 996.662 Q155.066 1001.78 151.548 1004.58 Q148.029 1007.38 141.548 1007.38 Q139.372 1007.38 137.057 1006.94 Q134.766 1006.52 132.312 1005.67 L132.312 1001.15 Q134.256 1002.29 136.571 1002.87 Q138.886 1003.44 141.409 1003.44 Q145.807 1003.44 148.099 1001.71 Q150.414 999.972 150.414 996.662 Q150.414 993.606 148.261 991.893 Q146.131 990.157 142.312 990.157 L138.284 990.157 L138.284 986.315 L142.497 986.315 Q145.946 986.315 147.775 984.949 Q149.603 983.56 149.603 980.967 Q149.603 978.305 147.705 976.893 Q145.83 975.458 142.312 975.458 Q140.39 975.458 138.191 975.875 Q135.992 976.292 133.353 977.171 L133.353 973.005 Q136.015 972.264 138.33 971.893 Q140.668 971.523 142.728 971.523 Q148.052 971.523 151.154 973.954 Q154.256 976.361 154.256 980.481 Q154.256 983.352 152.613 985.342 Q150.969 987.31 147.937 988.074 Z" fill="#000000" fill-rule="nonzero" fill-opacity="1" /><path clip-path="url(#clip950)" d="M163.978 972.148 L182.335 972.148 L182.335 976.083 L168.261 976.083 L168.261 984.555 Q169.279 984.208 170.298 984.046 Q171.316 983.861 172.335 983.861 Q178.122 983.861 181.501 987.032 Q184.881 990.204 184.881 995.62 Q184.881 1001.2 181.409 1004.3 Q177.937 1007.38 171.617 1007.38 Q169.441 1007.38 167.173 1007.01 Q164.927 1006.64 162.52 1005.9 L162.52 1001.2 Q164.603 1002.33 166.826 1002.89 Q169.048 1003.44 171.525 1003.44 Q175.529 1003.44 177.867 1001.34 Q180.205 999.231 180.205 995.62 Q180.205 992.009 177.867 989.903 Q175.529 987.796 171.525 987.796 Q169.65 987.796 167.775 988.213 Q165.923 988.629 163.978 989.509 L163.978 972.148 Z" fill="#000000" fill-rule="nonzero" fill-opacity="1" /><path clip-path="url(#clip950)" d="M145.622 595.695 L133.816 614.144 L145.622 614.144 L145.622 595.695 M144.395 591.621 L150.275 591.621 L150.275 614.144 L155.205 614.144 L155.205 618.033 L150.275 618.033 L150.275 626.181 L145.622 626.181 L145.622 618.033 L130.02 618.033 L130.02 613.519 L144.395 591.621 Z" fill="#000000" fill-rule="nonzero" fill-opacity="1" /><path clip-path="url(#clip950)" d="M172.937 594.7 Q169.326 594.7 167.497 598.265 Q165.691 601.807 165.691 608.936 Q165.691 616.043 167.497 619.607 Q169.326 623.149 172.937 623.149 Q176.571 623.149 178.376 619.607 Q180.205 616.043 180.205 608.936 Q180.205 601.807 178.376 598.265 Q176.571 594.7 172.937 594.7 M172.937 590.996 Q178.747 590.996 181.802 595.603 Q184.881 600.186 184.881 608.936 Q184.881 617.663 181.802 622.269 Q178.747 626.853 172.937 626.853 Q167.126 626.853 164.048 622.269 Q160.992 617.663 160.992 608.936 Q160.992 600.186 164.048 595.603 Q167.126 590.996 172.937 590.996 Z" fill="#000000" fill-rule="nonzero" fill-opacity="1" /><path clip-path="url(#clip950)" d="M146.617 215.169 L134.812 233.618 L146.617 233.618 L146.617 215.169 M145.39 211.095 L151.27 211.095 L151.27 233.618 L156.201 233.618 L156.201 237.507 L151.27 237.507 L151.27 245.655 L146.617 245.655 L146.617 237.507 L131.016 237.507 L131.016 232.993 L145.39 211.095 Z" fill="#000000" fill-rule="nonzero" fill-opacity="1" /><path clip-path="url(#clip950)" d="M163.978 211.095 L182.335 211.095 L182.335 215.03 L168.261 215.03 L168.261 223.502 Q169.279 223.155 170.298 222.993 Q171.316 222.808 172.335 222.808 Q178.122 222.808 181.501 225.979 Q184.881 229.15 184.881 234.567 Q184.881 240.146 181.409 243.247 Q177.937 246.326 171.617 246.326 Q169.441 246.326 167.173 245.956 Q164.927 245.585 162.52 244.845 L162.52 240.146 Q164.603 241.28 166.826 241.835 Q169.048 242.391 171.525 242.391 Q175.529 242.391 177.867 240.284 Q180.205 238.178 180.205 234.567 Q180.205 230.956 177.867 228.849 Q175.529 226.743 171.525 226.743 Q169.65 226.743 167.775 227.16 Q165.923 227.576 163.978 228.456 L163.978 211.095 Z" fill="#000000" fill-rule="nonzero" fill-opacity="1" /><path clip-path="url(#clip950)" d="M27.0866 2102.89 L27.0866 2112.16 L37.7174 2114.83 L37.7174 2105.5 L27.0866 2102.89 M8.97621 2107.67 L22.1851 2110.98 L22.1851 2101.68 L8.97621 2098.34 L8.97621 2093.25 L22.1851 2096.53 L22.1851 2086.6 L27.0866 2086.6 L27.0866 2097.77 L37.7174 2100.38 L37.7174 2090.26 L42.5871 2090.26 L42.5871 2101.62 L55.7642 2104.93 L55.7642 2110.02 L42.5871 2106.74 L42.5871 2116.07 L55.7642 2119.35 L55.7642 2124.47 L42.5871 2121.16 L42.5871 2131.19 L37.7174 2131.19 L37.7174 2119.99 L27.0866 2117.31 L27.0866 2127.56 L22.1851 2127.56 L22.1851 2116.07 L8.97621 2112.82 L8.97621 2107.67 Z" fill="#000000" fill-rule="nonzero" fill-opacity="1" /><path clip-path="url(#clip950)" d="M8.24416 2075.2 L8.24416 2045.16 L13.655 2045.16 L13.655 2068.77 L27.7232 2068.77 L27.7232 2046.14 L33.1341 2046.14 L33.1341 2068.77 L50.3533 2068.77 L50.3533 2044.58 L55.7642 2044.58 L55.7642 2075.2 L8.24416 2075.2 Z" fill="#000000" fill-rule="nonzero" fill-opacity="1" /><path clip-path="url(#clip950)" d="M20.1162 2004.64 L37.4628 2017.53 L55.7642 2003.97 L55.7642 2010.88 L41.7596 2021.25 L55.7642 2031.63 L55.7642 2038.54 L37.1126 2024.69 L20.1162 2037.36 L20.1162 2030.45 L32.8158 2021 L20.1162 2011.55 L20.1162 2004.64 Z" fill="#000000" fill-rule="nonzero" fill-opacity="1" /><path clip-path="url(#clip950)" d="M50.417 1990.03 L69.3231 1990.03 L69.3231 1995.92 L20.1162 1995.92 L20.1162 1990.03 L25.5271 1990.03 Q22.3442 1988.18 20.8164 1985.38 Q19.2568 1982.55 19.2568 1978.63 Q19.2568 1972.14 24.4131 1968.1 Q29.5693 1964.03 37.972 1964.03 Q46.3747 1964.03 51.531 1968.1 Q56.6872 1972.14 56.6872 1978.63 Q56.6872 1982.55 55.1594 1985.38 Q53.5998 1988.18 50.417 1990.03 M37.972 1970.1 Q31.5108 1970.1 27.8505 1972.78 Q24.1584 1975.42 24.1584 1980.07 Q24.1584 1984.71 27.8505 1987.39 Q31.5108 1990.03 37.972 1990.03 Q44.4332 1990.03 48.1253 1987.39 Q51.7856 1984.71 51.7856 1980.07 Q51.7856 1975.42 48.1253 1972.78 Q44.4332 1970.1 37.972 1970.1 Z" fill="#000000" fill-rule="nonzero" fill-opacity="1" /><path clip-path="url(#clip950)" d="M36.4761 1923.83 L39.3406 1923.83 L39.3406 1950.75 Q45.3881 1950.37 48.5709 1947.12 Q51.7219 1943.85 51.7219 1938.02 Q51.7219 1934.65 50.8944 1931.5 Q50.0669 1928.31 48.4118 1925.19 L53.9499 1925.19 Q55.2867 1928.35 55.987 1931.66 Q56.6872 1934.97 56.6872 1938.37 Q56.6872 1946.9 51.7219 1951.9 Q46.7567 1956.86 38.2903 1956.86 Q29.5374 1956.86 24.4131 1952.15 Q19.2568 1947.41 19.2568 1939.39 Q19.2568 1932.2 23.9038 1928.03 Q28.5189 1923.83 36.4761 1923.83 M34.7573 1929.68 Q29.9512 1929.75 27.0866 1932.39 Q24.2221 1935 24.2221 1939.33 Q24.2221 1944.23 26.9912 1947.19 Q29.7602 1950.12 34.7892 1950.56 L34.7573 1929.68 Z" fill="#000000" fill-rule="nonzero" fill-opacity="1" /><path clip-path="url(#clip950)" d="M25.5907 1893.56 Q25.0178 1894.54 24.7632 1895.72 Q24.4767 1896.87 24.4767 1898.27 Q24.4767 1903.23 27.7232 1905.91 Q30.9379 1908.55 36.9853 1908.55 L55.7642 1908.55 L55.7642 1914.44 L20.1162 1914.44 L20.1162 1908.55 L25.6544 1908.55 Q22.4079 1906.7 20.8483 1903.74 Q19.2568 1900.78 19.2568 1896.55 Q19.2568 1895.94 19.3523 1895.21 Q19.416 1894.48 19.5751 1893.59 L25.5907 1893.56 Z" fill="#000000" fill-rule="nonzero" fill-opacity="1" /><path clip-path="url(#clip950)" d="M20.1162 1887.41 L20.1162 1881.56 L55.7642 1881.56 L55.7642 1887.41 L20.1162 1887.41 M6.23896 1887.41 L6.23896 1881.56 L13.655 1881.56 L13.655 1887.41 L6.23896 1887.41 Z" fill="#000000" fill-rule="nonzero" fill-opacity="1" /><path clip-path="url(#clip950)" d="M26.9593 1841.55 Q23.0126 1839.35 21.1347 1836.3 Q19.2568 1833.24 19.2568 1829.1 Q19.2568 1823.53 23.1717 1820.51 Q27.0548 1817.49 34.2481 1817.49 L55.7642 1817.49 L55.7642 1823.38 L34.439 1823.38 Q29.3146 1823.38 26.832 1825.19 Q24.3494 1827 24.3494 1830.73 Q24.3494 1835.28 27.3731 1837.92 Q30.3968 1840.56 35.6167 1840.56 L55.7642 1840.56 L55.7642 1846.45 L34.439 1846.45 Q29.2828 1846.45 26.832 1848.27 Q24.3494 1850.08 24.3494 1853.87 Q24.3494 1858.35 27.4049 1861 Q30.4286 1863.64 35.6167 1863.64 L55.7642 1863.64 L55.7642 1869.53 L20.1162 1869.53 L20.1162 1863.64 L25.6544 1863.64 Q22.376 1861.63 20.8164 1858.83 Q19.2568 1856.03 19.2568 1852.18 Q19.2568 1848.3 21.2302 1845.59 Q23.2036 1842.85 26.9593 1841.55 Z" fill="#000000" fill-rule="nonzero" fill-opacity="1" /><path clip-path="url(#clip950)" d="M36.4761 1775.31 L39.3406 1775.31 L39.3406 1802.24 Q45.3881 1801.86 48.5709 1798.61 Q51.7219 1795.33 51.7219 1789.51 Q51.7219 1786.14 50.8944 1782.98 Q50.0669 1779.8 48.4118 1776.68 L53.9499 1776.68 Q55.2867 1779.83 55.987 1783.14 Q56.6872 1786.45 56.6872 1789.86 Q56.6872 1798.39 51.7219 1803.39 Q46.7567 1808.35 38.2903 1808.35 Q29.5374 1808.35 24.4131 1803.64 Q19.2568 1798.9 19.2568 1790.88 Q19.2568 1783.69 23.9038 1779.52 Q28.5189 1775.31 36.4761 1775.31 M34.7573 1781.17 Q29.9512 1781.23 27.0866 1783.88 Q24.2221 1786.49 24.2221 1790.81 Q24.2221 1795.72 26.9912 1798.68 Q29.7602 1801.6 34.7892 1802.05 L34.7573 1781.17 Z" fill="#000000" fill-rule="nonzero" fill-opacity="1" /><path clip-path="url(#clip950)" d="M34.2481 1736.07 L55.7642 1736.07 L55.7642 1741.93 L34.439 1741.93 Q29.3783 1741.93 26.8638 1743.9 Q24.3494 1745.87 24.3494 1749.82 Q24.3494 1754.56 27.3731 1757.3 Q30.3968 1760.04 35.6167 1760.04 L55.7642 1760.04 L55.7642 1765.92 L20.1162 1765.92 L20.1162 1760.04 L25.6544 1760.04 Q22.4397 1757.94 20.8483 1755.1 Q19.2568 1752.24 19.2568 1748.51 Q19.2568 1742.37 23.0763 1739.22 Q26.8638 1736.07 34.2481 1736.07 Z" fill="#000000" fill-rule="nonzero" fill-opacity="1" /><path clip-path="url(#clip950)" d="M9.99473 1718.6 L20.1162 1718.6 L20.1162 1706.53 L24.6677 1706.53 L24.6677 1718.6 L44.0194 1718.6 Q48.3799 1718.6 49.6213 1717.42 Q50.8626 1716.21 50.8626 1712.55 L50.8626 1706.53 L55.7642 1706.53 L55.7642 1712.55 Q55.7642 1719.33 53.2497 1721.91 Q50.7034 1724.48 44.0194 1724.48 L24.6677 1724.48 L24.6677 1728.78 L20.1162 1728.78 L20.1162 1724.48 L9.99473 1724.48 L9.99473 1718.6 Z" fill="#000000" fill-rule="nonzero" fill-opacity="1" /><path clip-path="url(#clip950)" d="M21.1665 1676.1 L26.7047 1676.1 Q25.4316 1678.59 24.795 1681.26 Q24.1584 1683.93 24.1584 1686.8 Q24.1584 1691.16 25.4952 1693.36 Q26.832 1695.52 29.5056 1695.52 Q31.5426 1695.52 32.7203 1693.96 Q33.8661 1692.4 34.9165 1687.69 L35.3621 1685.69 Q36.6989 1679.45 39.1497 1676.84 Q41.5686 1674.19 45.9291 1674.19 Q50.8944 1674.19 53.7908 1678.14 Q56.6872 1682.06 56.6872 1688.93 Q56.6872 1691.8 56.1143 1694.92 Q55.5732 1698 54.4592 1701.44 L48.4118 1701.44 Q50.0987 1698.19 50.958 1695.04 Q51.7856 1691.89 51.7856 1688.8 Q51.7856 1684.67 50.3851 1682.44 Q48.9529 1680.21 46.3747 1680.21 Q43.9876 1680.21 42.7145 1681.83 Q41.4413 1683.43 40.2637 1688.87 L39.7862 1690.9 Q38.6404 1696.35 36.2851 1698.77 Q33.898 1701.19 29.7602 1701.19 Q24.7313 1701.19 21.9941 1697.62 Q19.2568 1694.06 19.2568 1687.5 Q19.2568 1684.25 19.7343 1681.39 Q20.2117 1678.52 21.1665 1676.1 Z" fill="#000000" fill-rule="nonzero" fill-opacity="1" /><polyline clip-path="url(#clip952)" style="stroke:#ff0000; stroke-linecap:round; stroke-linejoin:round; stroke-width:8; stroke-opacity:1; fill:none" points="349.821,3348.69 738.487,3424.8 1127.15,3196.48 1515.82,3424.8 1904.49,3196.48 2293.15,3424.8 2681.82,2968.17 3070.48,3044.27 3459.15,2739.85 3847.82,152.269 "/>
<polyline clip-path="url(#clip952)" style="stroke:#808000; stroke-linecap:round; stroke-linejoin:round; stroke-width:8; stroke-opacity:1; fill:none" points="349.821,3577.01 738.487,3653.11 1127.15,3196.48 1515.82,3196.48 1904.49,3424.8 2293.15,3120.38 2681.82,2739.85 3070.48,2892.06 3459.15,2131.01 3847.82,989.428 "/>
<polyline clip-path="url(#clip952)" style="stroke:#0000ff; stroke-linecap:round; stroke-linejoin:round; stroke-width:8; stroke-opacity:1; fill:none" points="349.821,3424.8 738.487,3272.59 1127.15,3272.59 1515.82,3272.59 1904.49,3272.59 2293.15,3196.48 2681.82,2968.17 3070.48,3196.48 3459.15,2207.11 3847.82,837.217 "/>
<path clip-path="url(#clip950)" d="M368.477 378.301 L926.856 378.301 L926.856 170.941 L368.477 170.941  Z" fill="#ffffff" fill-rule="evenodd" fill-opacity="1"/>
<polyline clip-path="url(#clip950)" style="stroke:#000000; stroke-linecap:round; stroke-linejoin:round; stroke-width:4; stroke-opacity:1; fill:none" points="368.477,378.301 926.856,378.301 926.856,170.941 368.477,170.941 368.477,378.301 "/>
<polyline clip-path="url(#clip950)" style="stroke:#ff0000; stroke-linecap:round; stroke-linejoin:round; stroke-width:8; stroke-opacity:1; fill:none" points="409.675,222.781 656.867,222.781 "/>
<path clip-path="url(#clip950)" d="M698.066 205.501 L705.033 205.501 L713.853 229.019 L722.718 205.501 L729.686 205.501 L729.686 240.061 L725.126 240.061 L725.126 209.714 L716.214 233.417 L711.515 233.417 L702.603 209.714 L702.603 240.061 L698.066 240.061 L698.066 205.501 Z" fill="#000000" fill-rule="nonzero" fill-opacity="1" /><path clip-path="url(#clip950)" d="M764.848 208.163 L764.848 213.093 Q762.487 210.894 759.801 209.806 Q757.139 208.718 754.13 208.718 Q748.204 208.718 745.056 212.352 Q741.908 215.964 741.908 222.815 Q741.908 229.644 745.056 233.278 Q748.204 236.889 754.13 236.889 Q757.139 236.889 759.801 235.801 Q762.487 234.713 764.848 232.514 L764.848 237.399 Q762.394 239.065 759.639 239.899 Q756.908 240.732 753.852 240.732 Q746.005 240.732 741.491 235.94 Q736.978 231.125 736.978 222.815 Q736.978 214.482 741.491 209.69 Q746.005 204.876 753.852 204.876 Q756.954 204.876 759.686 205.709 Q762.44 206.519 764.848 208.163 Z" fill="#000000" fill-rule="nonzero" fill-opacity="1" /><path clip-path="url(#clip950)" d="M767.278 205.501 L796.514 205.501 L796.514 209.436 L784.246 209.436 L784.246 240.061 L779.547 240.061 L779.547 209.436 L767.278 209.436 L767.278 205.501 Z" fill="#000000" fill-rule="nonzero" fill-opacity="1" /><path clip-path="url(#clip950)" d="M821.746 206.635 L821.746 211.195 Q819.084 209.922 816.722 209.297 Q814.361 208.672 812.162 208.672 Q808.343 208.672 806.26 210.153 Q804.199 211.635 804.199 214.366 Q804.199 216.658 805.565 217.839 Q806.954 218.996 810.797 219.714 L813.621 220.292 Q818.852 221.288 821.329 223.811 Q823.829 226.311 823.829 230.524 Q823.829 235.547 820.449 238.139 Q817.093 240.732 810.588 240.732 Q808.135 240.732 805.357 240.176 Q802.602 239.621 799.639 238.533 L799.639 233.718 Q802.486 235.315 805.218 236.125 Q807.949 236.936 810.588 236.936 Q814.593 236.936 816.769 235.362 Q818.945 233.788 818.945 230.871 Q818.945 228.325 817.371 226.889 Q815.82 225.454 812.255 224.737 L809.408 224.181 Q804.176 223.139 801.838 220.917 Q799.5 218.695 799.5 214.737 Q799.5 210.153 802.718 207.514 Q805.959 204.876 811.63 204.876 Q814.06 204.876 816.584 205.315 Q819.107 205.755 821.746 206.635 Z" fill="#000000" fill-rule="nonzero" fill-opacity="1" /><polyline clip-path="url(#clip950)" style="stroke:#808000; stroke-linecap:round; stroke-linejoin:round; stroke-width:8; stroke-opacity:1; fill:none" points="409.675,274.621 656.867,274.621 "/>
<path clip-path="url(#clip950)" d="M720.311 258.475 L720.311 263.035 Q717.649 261.762 715.288 261.137 Q712.927 260.512 710.728 260.512 Q706.908 260.512 704.825 261.993 Q702.765 263.475 702.765 266.206 Q702.765 268.498 704.13 269.679 Q705.519 270.836 709.362 271.554 L712.186 272.132 Q717.417 273.128 719.894 275.651 Q722.394 278.151 722.394 282.364 Q722.394 287.387 719.015 289.979 Q715.658 292.572 709.154 292.572 Q706.7 292.572 703.922 292.016 Q701.168 291.461 698.205 290.373 L698.205 285.558 Q701.052 287.155 703.783 287.965 Q706.515 288.776 709.154 288.776 Q713.158 288.776 715.334 287.202 Q717.51 285.628 717.51 282.711 Q717.51 280.165 715.936 278.729 Q714.385 277.294 710.82 276.577 L707.973 276.021 Q702.742 274.979 700.404 272.757 Q698.066 270.535 698.066 266.577 Q698.066 261.993 701.283 259.354 Q704.524 256.716 710.195 256.716 Q712.626 256.716 715.149 257.155 Q717.672 257.595 720.311 258.475 Z" fill="#000000" fill-rule="nonzero" fill-opacity="1" /><path clip-path="url(#clip950)" d="M729.686 257.341 L734.362 257.341 L734.362 287.965 L751.19 287.965 L751.19 291.901 L729.686 291.901 L729.686 257.341 Z" fill="#000000" fill-rule="nonzero" fill-opacity="1" /><polyline clip-path="url(#clip950)" style="stroke:#0000ff; stroke-linecap:round; stroke-linejoin:round; stroke-width:8; stroke-opacity:1; fill:none" points="409.675,326.461 656.867,326.461 "/>
<path clip-path="url(#clip950)" d="M714.454 327.537 Q715.959 328.046 717.371 329.713 Q718.806 331.38 720.241 334.296 L724.987 343.741 L719.964 343.741 L715.542 334.875 Q713.829 331.403 712.209 330.268 Q710.612 329.134 707.834 329.134 L702.742 329.134 L702.742 343.741 L698.066 343.741 L698.066 309.181 L708.621 309.181 Q714.547 309.181 717.464 311.657 Q720.38 314.134 720.38 319.134 Q720.38 322.398 718.853 324.551 Q717.348 326.704 714.454 327.537 M702.742 313.023 L702.742 325.292 L708.621 325.292 Q712.001 325.292 713.714 323.741 Q715.45 322.167 715.45 319.134 Q715.45 316.102 713.714 314.574 Q712.001 313.023 708.621 313.023 L702.742 313.023 Z" fill="#000000" fill-rule="nonzero" fill-opacity="1" /><path clip-path="url(#clip950)" d="M741.561 330.708 Q736.399 330.708 734.408 331.889 Q732.417 333.069 732.417 335.917 Q732.417 338.185 733.899 339.528 Q735.403 340.847 737.973 340.847 Q741.515 340.847 743.644 338.347 Q745.797 335.824 745.797 331.657 L745.797 330.708 L741.561 330.708 M750.056 328.949 L750.056 343.741 L745.797 343.741 L745.797 339.805 Q744.339 342.167 742.163 343.301 Q739.987 344.412 736.839 344.412 Q732.857 344.412 730.496 342.19 Q728.158 339.944 728.158 336.194 Q728.158 331.819 731.075 329.597 Q734.015 327.375 739.825 327.375 L745.797 327.375 L745.797 326.958 Q745.797 324.019 743.852 322.421 Q741.931 320.801 738.436 320.801 Q736.214 320.801 734.107 321.333 Q732.001 321.866 730.056 322.931 L730.056 318.995 Q732.394 318.093 734.593 317.653 Q736.792 317.19 738.876 317.19 Q744.501 317.19 747.278 320.106 Q750.056 323.023 750.056 328.949 Z" fill="#000000" fill-rule="nonzero" fill-opacity="1" /><path clip-path="url(#clip950)" d="M780.38 328.093 L780.38 343.741 L776.121 343.741 L776.121 328.231 Q776.121 324.551 774.686 322.722 Q773.25 320.894 770.38 320.894 Q766.931 320.894 764.94 323.093 Q762.95 325.292 762.95 329.088 L762.95 343.741 L758.667 343.741 L758.667 317.815 L762.95 317.815 L762.95 321.843 Q764.477 319.505 766.538 318.347 Q768.621 317.19 771.329 317.19 Q775.797 317.19 778.088 319.968 Q780.38 322.722 780.38 328.093 Z" fill="#000000" fill-rule="nonzero" fill-opacity="1" /><path clip-path="url(#clip950)" d="M805.935 321.75 L805.935 307.722 L810.195 307.722 L810.195 343.741 L805.935 343.741 L805.935 339.852 Q804.593 342.167 802.533 343.301 Q800.496 344.412 797.625 344.412 Q792.926 344.412 789.963 340.662 Q787.024 336.912 787.024 330.801 Q787.024 324.69 789.963 320.94 Q792.926 317.19 797.625 317.19 Q800.496 317.19 802.533 318.324 Q804.593 319.435 805.935 321.75 M791.422 330.801 Q791.422 335.5 793.343 338.185 Q795.287 340.847 798.667 340.847 Q802.047 340.847 803.991 338.185 Q805.935 335.5 805.935 330.801 Q805.935 326.102 803.991 323.44 Q802.047 320.755 798.667 320.755 Q795.287 320.755 793.343 323.44 Q791.422 326.102 791.422 330.801 Z" fill="#000000" fill-rule="nonzero" fill-opacity="1" /><path clip-path="url(#clip950)" d="M829.014 320.801 Q825.588 320.801 823.597 323.486 Q821.607 326.148 821.607 330.801 Q821.607 335.454 823.574 338.139 Q825.565 340.801 829.014 340.801 Q832.417 340.801 834.408 338.116 Q836.398 335.43 836.398 330.801 Q836.398 326.194 834.408 323.509 Q832.417 320.801 829.014 320.801 M829.014 317.19 Q834.57 317.19 837.741 320.801 Q840.912 324.412 840.912 330.801 Q840.912 337.167 837.741 340.801 Q834.57 344.412 829.014 344.412 Q823.435 344.412 820.264 340.801 Q817.116 337.167 817.116 330.801 Q817.116 324.412 820.264 320.801 Q823.435 317.19 829.014 317.19 Z" fill="#000000" fill-rule="nonzero" fill-opacity="1" /><path clip-path="url(#clip950)" d="M868.157 322.792 Q869.755 319.921 871.977 318.556 Q874.199 317.19 877.208 317.19 Q881.259 317.19 883.458 320.037 Q885.657 322.861 885.657 328.093 L885.657 343.741 L881.375 343.741 L881.375 328.231 Q881.375 324.505 880.055 322.699 Q878.736 320.894 876.028 320.894 Q872.718 320.894 870.796 323.093 Q868.875 325.292 868.875 329.088 L868.875 343.741 L864.593 343.741 L864.593 328.231 Q864.593 324.481 863.273 322.699 Q861.954 320.894 859.199 320.894 Q855.935 320.894 854.014 323.116 Q852.093 325.315 852.093 329.088 L852.093 343.741 L847.81 343.741 L847.81 317.815 L852.093 317.815 L852.093 321.843 Q853.551 319.458 855.588 318.324 Q857.625 317.19 860.426 317.19 Q863.25 317.19 865.218 318.625 Q867.208 320.06 868.157 322.792 Z" fill="#000000" fill-rule="nonzero" fill-opacity="1" /></svg>
